<svg xmlns="http://www.w3.org/2000/svg" xmlns:xlink="http://www.w3.org/1999/xlink" version="1.1" width="256" height="256" viewBox="0 0 256 256" xml:space="preserve">

<defs>
</defs>
<g style="stroke: none; stroke-width: 0; stroke-dasharray: none; stroke-linecap: butt; stroke-linejoin: miter; stroke-miterlimit: 10; fill: none; fill-rule: nonzero; opacity: 1;" transform="translate(1.4065934065934016 1.4065934065934016) scale(2.81 2.81)" >
	<path d="M 45 86.971 c -2.844 -23.399 -7.225 -45.143 -14.318 -63.967 c -10.227 -1.759 -20.455 -1.759 -30.682 0 L 45 86.971 z" style="stroke: none; stroke-width: 1; stroke-dasharray: none; stroke-linecap: butt; stroke-linejoin: miter; stroke-miterlimit: 10; fill: rgb(98,180,216); fill-rule: nonzero; opacity: 1;" transform=" matrix(1 0 0 1 0 0) " stroke-linecap="round" />
	<path d="M 59.318 23.004 c -10.502 -0.846 -20.296 -1.065 -28.636 0 L 45 86.971 C 51.205 66.148 55.929 44.809 59.318 23.004 z" style="stroke: none; stroke-width: 1; stroke-dasharray: none; stroke-linecap: butt; stroke-linejoin: miter; stroke-miterlimit: 10; fill: rgb(122,204,232); fill-rule: nonzero; opacity: 1;" transform=" matrix(1 0 0 1 0 0) " stroke-linecap="round" />
	<path d="M 45 86.971 l 14.318 -63.967 c 9.461 -1.818 19.738 -1.701 30.682 0 L 45 86.971 z" style="stroke: none; stroke-width: 1; stroke-dasharray: none; stroke-linecap: butt; stroke-linejoin: miter; stroke-miterlimit: 10; fill: rgb(163,221,235); fill-rule: nonzero; opacity: 1;" transform=" matrix(1 0 0 1 0 0) " stroke-linecap="round" />
	<path d="M 17.107 3.029 c 6.365 6.953 11.384 13.691 13.574 19.975 H 0 L 17.107 3.029 z" style="stroke: none; stroke-width: 1; stroke-dasharray: none; stroke-linecap: butt; stroke-linejoin: miter; stroke-miterlimit: 10; fill: rgb(122,204,232); fill-rule: nonzero; opacity: 1;" transform=" matrix(1 0 0 1 0 0) " stroke-linecap="round" />
	<path d="M 45 3.029 c -3.957 7.983 -8.417 15.149 -14.318 19.975 L 17.107 3.029 L 45 3.029 z" style="stroke: none; stroke-width: 1; stroke-dasharray: none; stroke-linecap: butt; stroke-linejoin: miter; stroke-miterlimit: 10; fill: rgb(98,180,216); fill-rule: nonzero; opacity: 1;" transform=" matrix(1 0 0 1 0 0) " stroke-linecap="round" />
	<path d="M 59.318 23.004 C 56.207 15.526 51.071 9.047 45 3.029 L 30.682 23.004 H 59.318 z" style="stroke: none; stroke-width: 1; stroke-dasharray: none; stroke-linecap: butt; stroke-linejoin: miter; stroke-miterlimit: 10; fill: rgb(164,220,239); fill-rule: nonzero; opacity: 1;" transform=" matrix(1 0 0 1 0 0) " stroke-linecap="round" />
	<path d="M 59.318 23.004 c 6.348 -5.561 10.221 -12.501 13.137 -19.975 L 45 3.029 L 59.318 23.004 z" style="stroke: none; stroke-width: 1; stroke-dasharray: none; stroke-linecap: butt; stroke-linejoin: miter; stroke-miterlimit: 10; fill: rgb(195,231,246); fill-rule: nonzero; opacity: 1;" transform=" matrix(1 0 0 1 0 0) " stroke-linecap="round" />
	<polygon points="59.32,23 90,23 72.45,3.03 " style="stroke: none; stroke-width: 1; stroke-dasharray: none; stroke-linecap: butt; stroke-linejoin: miter; stroke-miterlimit: 10; fill: rgb(229,241,247); fill-rule: nonzero; opacity: 1;" transform="  matrix(1 0 0 1 0 0) "/>
	<path d="M 9.237 52.572 c -1.341 4.138 -4.611 7.407 -8.748 8.748 c -0.652 0.211 -0.652 1.11 0 1.321 c 4.138 1.341 7.407 4.611 8.748 8.748 c 0.211 0.652 1.11 0.652 1.321 0 c 1.341 -4.138 4.611 -7.407 8.748 -8.748 c 0.652 -0.211 0.652 -1.11 0 -1.321 c -4.138 -1.341 -7.407 -4.611 -8.748 -8.748 C 10.348 51.92 9.449 51.92 9.237 52.572 z" style="stroke: none; stroke-width: 1; stroke-dasharray: none; stroke-linecap: butt; stroke-linejoin: miter; stroke-miterlimit: 10; fill: rgb(229,241,247); fill-rule: nonzero; opacity: 1;" transform=" matrix(1 0 0 1 0 0) " stroke-linecap="round" />
	<path d="M 81.329 52.484 c -1.102 3.398 -3.786 6.083 -7.184 7.184 c -0.535 0.174 -0.535 0.912 0 1.085 c 3.398 1.102 6.083 3.786 7.184 7.184 c 0.174 0.535 0.912 0.535 1.085 0 c 1.102 -3.398 3.786 -6.083 7.184 -7.184 c 0.535 -0.174 0.535 -0.912 0 -1.085 c -3.398 -1.102 -6.083 -3.786 -7.184 -7.184 C 82.241 51.949 81.503 51.949 81.329 52.484 z" style="stroke: none; stroke-width: 1; stroke-dasharray: none; stroke-linecap: butt; stroke-linejoin: miter; stroke-miterlimit: 10; fill: rgb(229,241,247); fill-rule: nonzero; opacity: 1;" transform=" matrix(1 0 0 1 0 0) " stroke-linecap="round" />
	<path d="M 67.864 74.545 c -0.863 2.663 -2.967 4.767 -5.63 5.63 c -0.42 0.136 -0.42 0.714 0 0.85 c 2.663 0.863 4.767 2.967 5.63 5.63 c 0.136 0.42 0.714 0.42 0.85 0 c 0.863 -2.663 2.967 -4.767 5.63 -5.63 c 0.42 -0.136 0.42 -0.714 0 -0.85 c -2.663 -0.863 -4.767 -2.967 -5.63 -5.63 C 68.578 74.126 68 74.126 67.864 74.545 z" style="stroke: none; stroke-width: 1; stroke-dasharray: none; stroke-linecap: butt; stroke-linejoin: miter; stroke-miterlimit: 10; fill: rgb(229,241,247); fill-rule: nonzero; opacity: 1;" transform=" matrix(1 0 0 1 0 0) " stroke-linecap="round" />
	<path d="M 23.879 76.309 c -0.741 2.285 -2.546 4.091 -4.831 4.831 c -0.36 0.117 -0.36 0.613 0 0.73 c 2.285 0.741 4.091 2.546 4.831 4.831 c 0.117 0.36 0.613 0.36 0.73 0 c 0.741 -2.285 2.546 -4.091 4.831 -4.831 c 0.36 -0.117 0.36 -0.613 0 -0.73 c -2.285 -0.741 -4.091 -2.546 -4.831 -4.831 C 24.492 75.949 23.995 75.949 23.879 76.309 z" style="stroke: none; stroke-width: 1; stroke-dasharray: none; stroke-linecap: butt; stroke-linejoin: miter; stroke-miterlimit: 10; fill: rgb(229,241,247); fill-rule: nonzero; opacity: 1;" transform=" matrix(1 0 0 1 0 0) " stroke-linecap="round" />
</g>
</svg>