<svg xmlns="http://www.w3.org/2000/svg" xmlns:xlink="http://www.w3.org/1999/xlink" version="1.1" width="256" height="256" viewBox="0 0 256 256" xml:space="preserve">

<defs>
</defs>
<g style="stroke: none; stroke-width: 0; stroke-dasharray: none; stroke-linecap: butt; stroke-linejoin: miter; stroke-miterlimit: 10; fill: none; fill-rule: nonzero; opacity: 1;" transform="translate(1.4065934065934016 1.4065934065934016) scale(2.81 2.81)" >
	<path d="M 57.392 35.862 H 32.607 c -1.679 0 -2.92 -1.565 -2.538 -3.2 l 3.057 -13.064 c 0.276 -1.179 1.327 -2.012 2.538 -2.012 h 17.907 c 1.158 0 2.176 0.764 2.501 1.875 l 3.821 13.064 C 60.382 34.192 59.13 35.862 57.392 35.862 z" style="stroke: none; stroke-width: 1; stroke-dasharray: none; stroke-linecap: butt; stroke-linejoin: miter; stroke-miterlimit: 10; fill: rgb(213,226,214); fill-rule: nonzero; opacity: 1;" transform=" matrix(1 0 0 1 0 0) " stroke-linecap="round" />
	<path d="M 59.894 32.524 L 56.073 19.46 c -0.325 -1.111 -1.344 -1.875 -2.501 -1.875 H 51.43 l 1.556 5.319 c 1.269 4.339 -1.985 8.681 -6.506 8.681 H 30.322 l -0.252 1.076 c -0.383 1.635 0.858 3.2 2.538 3.2 h 24.785 C 59.13 35.862 60.382 34.192 59.894 32.524 z" style="stroke: none; stroke-width: 1; stroke-dasharray: none; stroke-linecap: butt; stroke-linejoin: miter; stroke-miterlimit: 10; fill: rgb(182,195,187); fill-rule: nonzero; opacity: 1;" transform=" matrix(1 0 0 1 0 0) " stroke-linecap="round" />
	<circle cx="36.619" cy="21.109" r="1.949" style="stroke: none; stroke-width: 1; stroke-dasharray: none; stroke-linecap: butt; stroke-linejoin: miter; stroke-miterlimit: 10; fill: rgb(240,249,237); fill-rule: nonzero; opacity: 1;" transform="  matrix(1 0 0 1 0 0) "/>
	<circle cx="40.215" cy="23.825" r="1.145" style="stroke: none; stroke-width: 1; stroke-dasharray: none; stroke-linecap: butt; stroke-linejoin: miter; stroke-miterlimit: 10; fill: rgb(240,249,237); fill-rule: nonzero; opacity: 1;" transform="  matrix(1 0 0 1 0 0) "/>
	<path d="M 42.392 54.138 H 17.607 c -1.679 0 -2.92 -1.565 -2.538 -3.2 l 3.057 -13.064 c 0.276 -1.179 1.327 -2.012 2.538 -2.012 h 17.907 c 1.158 0 2.176 0.764 2.501 1.875 L 44.894 50.8 C 45.382 52.469 44.13 54.138 42.392 54.138 z" style="stroke: none; stroke-width: 1; stroke-dasharray: none; stroke-linecap: butt; stroke-linejoin: miter; stroke-miterlimit: 10; fill: rgb(213,226,214); fill-rule: nonzero; opacity: 1;" transform=" matrix(1 0 0 1 0 0) " stroke-linecap="round" />
	<path d="M 44.894 50.8 l -3.821 -13.064 c -0.325 -1.111 -1.344 -1.875 -2.501 -1.875 H 36.43 l 1.556 5.319 c 1.269 4.339 -1.985 8.681 -6.506 8.681 H 15.322 l -0.252 1.076 c -0.383 1.635 0.858 3.2 2.538 3.2 h 24.785 C 44.13 54.138 45.382 52.469 44.894 50.8 z" style="stroke: none; stroke-width: 1; stroke-dasharray: none; stroke-linecap: butt; stroke-linejoin: miter; stroke-miterlimit: 10; fill: rgb(182,195,187); fill-rule: nonzero; opacity: 1;" transform=" matrix(1 0 0 1 0 0) " stroke-linecap="round" />
	<circle cx="21.619000000000003" cy="39.388999999999996" r="1.949" style="stroke: none; stroke-width: 1; stroke-dasharray: none; stroke-linecap: butt; stroke-linejoin: miter; stroke-miterlimit: 10; fill: rgb(240,249,237); fill-rule: nonzero; opacity: 1;" transform="  matrix(1 0 0 1 0 0) "/>
	<circle cx="25.215" cy="42.105000000000004" r="1.145" style="stroke: none; stroke-width: 1; stroke-dasharray: none; stroke-linecap: butt; stroke-linejoin: miter; stroke-miterlimit: 10; fill: rgb(240,249,237); fill-rule: nonzero; opacity: 1;" transform="  matrix(1 0 0 1 0 0) "/>
	<path d="M 72.392 54.138 H 47.607 c -1.679 0 -2.92 -1.565 -2.538 -3.2 l 3.057 -13.064 c 0.276 -1.179 1.327 -2.012 2.538 -2.012 h 17.907 c 1.158 0 2.176 0.764 2.501 1.875 L 74.894 50.8 C 75.382 52.469 74.13 54.138 72.392 54.138 z" style="stroke: none; stroke-width: 1; stroke-dasharray: none; stroke-linecap: butt; stroke-linejoin: miter; stroke-miterlimit: 10; fill: rgb(213,226,214); fill-rule: nonzero; opacity: 1;" transform=" matrix(1 0 0 1 0 0) " stroke-linecap="round" />
	<path d="M 74.894 50.8 l -3.821 -13.064 c -0.325 -1.111 -1.344 -1.875 -2.501 -1.875 H 66.43 l 1.556 5.319 c 1.269 4.339 -1.985 8.681 -6.506 8.681 H 45.322 l -0.252 1.076 c -0.383 1.635 0.858 3.2 2.538 3.2 h 24.785 C 74.13 54.138 75.382 52.469 74.894 50.8 z" style="stroke: none; stroke-width: 1; stroke-dasharray: none; stroke-linecap: butt; stroke-linejoin: miter; stroke-miterlimit: 10; fill: rgb(182,195,187); fill-rule: nonzero; opacity: 1;" transform=" matrix(1 0 0 1 0 0) " stroke-linecap="round" />
	<circle cx="51.619" cy="39.388999999999996" r="1.949" style="stroke: none; stroke-width: 1; stroke-dasharray: none; stroke-linecap: butt; stroke-linejoin: miter; stroke-miterlimit: 10; fill: rgb(240,249,237); fill-rule: nonzero; opacity: 1;" transform="  matrix(1 0 0 1 0 0) "/>
	<circle cx="55.215" cy="42.105000000000004" r="1.145" style="stroke: none; stroke-width: 1; stroke-dasharray: none; stroke-linecap: butt; stroke-linejoin: miter; stroke-miterlimit: 10; fill: rgb(240,249,237); fill-rule: nonzero; opacity: 1;" transform="  matrix(1 0 0 1 0 0) "/>
	<path d="M 27.392 72.415 H 2.607 c -1.679 0 -2.92 -1.565 -2.538 -3.2 l 3.057 -13.064 c 0.276 -1.179 1.327 -2.012 2.538 -2.012 h 17.907 c 1.158 0 2.176 0.764 2.501 1.875 l 3.821 13.064 C 30.382 70.745 29.13 72.415 27.392 72.415 z" style="stroke: none; stroke-width: 1; stroke-dasharray: none; stroke-linecap: butt; stroke-linejoin: miter; stroke-miterlimit: 10; fill: rgb(213,226,214); fill-rule: nonzero; opacity: 1;" transform=" matrix(1 0 0 1 0 0) " stroke-linecap="round" />
	<path d="M 29.894 69.077 l -3.821 -13.064 c -0.325 -1.111 -1.344 -1.875 -2.501 -1.875 H 21.43 l 1.556 5.319 c 1.269 4.339 -1.985 8.681 -6.506 8.681 H 0.322 L 0.07 69.215 c -0.383 1.635 0.858 3.2 2.538 3.2 h 24.785 C 29.13 72.415 30.382 70.745 29.894 69.077 z" style="stroke: none; stroke-width: 1; stroke-dasharray: none; stroke-linecap: butt; stroke-linejoin: miter; stroke-miterlimit: 10; fill: rgb(182,195,187); fill-rule: nonzero; opacity: 1;" transform=" matrix(1 0 0 1 0 0) " stroke-linecap="round" />
	<circle cx="6.619" cy="57.669" r="1.949" style="stroke: none; stroke-width: 1; stroke-dasharray: none; stroke-linecap: butt; stroke-linejoin: miter; stroke-miterlimit: 10; fill: rgb(240,249,237); fill-rule: nonzero; opacity: 1;" transform="  matrix(1 0 0 1 0 0) "/>
	<circle cx="10.215" cy="60.385000000000005" r="1.145" style="stroke: none; stroke-width: 1; stroke-dasharray: none; stroke-linecap: butt; stroke-linejoin: miter; stroke-miterlimit: 10; fill: rgb(240,249,237); fill-rule: nonzero; opacity: 1;" transform="  matrix(1 0 0 1 0 0) "/>
	<path d="M 57.392 72.415 H 32.607 c -1.679 0 -2.92 -1.565 -2.538 -3.2 l 3.057 -13.064 c 0.276 -1.179 1.327 -2.012 2.538 -2.012 h 17.907 c 1.158 0 2.176 0.764 2.501 1.875 l 3.821 13.064 C 60.382 70.745 59.13 72.415 57.392 72.415 z" style="stroke: none; stroke-width: 1; stroke-dasharray: none; stroke-linecap: butt; stroke-linejoin: miter; stroke-miterlimit: 10; fill: rgb(213,226,214); fill-rule: nonzero; opacity: 1;" transform=" matrix(1 0 0 1 0 0) " stroke-linecap="round" />
	<path d="M 59.894 69.077 l -3.821 -13.064 c -0.325 -1.111 -1.344 -1.875 -2.501 -1.875 H 51.43 l 1.556 5.319 c 1.269 4.339 -1.985 8.681 -6.506 8.681 H 30.322 l -0.252 1.076 c -0.383 1.635 0.858 3.2 2.538 3.2 h 24.785 C 59.13 72.415 60.382 70.745 59.894 69.077 z" style="stroke: none; stroke-width: 1; stroke-dasharray: none; stroke-linecap: butt; stroke-linejoin: miter; stroke-miterlimit: 10; fill: rgb(182,195,187); fill-rule: nonzero; opacity: 1;" transform=" matrix(1 0 0 1 0 0) " stroke-linecap="round" />
	<circle cx="36.619" cy="57.669" r="1.949" style="stroke: none; stroke-width: 1; stroke-dasharray: none; stroke-linecap: butt; stroke-linejoin: miter; stroke-miterlimit: 10; fill: rgb(240,249,237); fill-rule: nonzero; opacity: 1;" transform="  matrix(1 0 0 1 0 0) "/>
	<circle cx="40.215" cy="60.385000000000005" r="1.145" style="stroke: none; stroke-width: 1; stroke-dasharray: none; stroke-linecap: butt; stroke-linejoin: miter; stroke-miterlimit: 10; fill: rgb(240,249,237); fill-rule: nonzero; opacity: 1;" transform="  matrix(1 0 0 1 0 0) "/>
	<path d="M 87.392 72.415 H 62.607 c -1.679 0 -2.92 -1.565 -2.538 -3.2 l 3.057 -13.064 c 0.276 -1.179 1.327 -2.012 2.538 -2.012 h 17.907 c 1.158 0 2.176 0.764 2.501 1.875 l 3.821 13.064 C 90.382 70.745 89.13 72.415 87.392 72.415 z" style="stroke: none; stroke-width: 1; stroke-dasharray: none; stroke-linecap: butt; stroke-linejoin: miter; stroke-miterlimit: 10; fill: rgb(213,226,214); fill-rule: nonzero; opacity: 1;" transform=" matrix(1 0 0 1 0 0) " stroke-linecap="round" />
	<path d="M 89.894 69.077 l -3.821 -13.064 c -0.325 -1.111 -1.344 -1.875 -2.501 -1.875 H 81.43 l 1.556 5.319 c 1.269 4.339 -1.985 8.681 -6.506 8.681 H 60.322 l -0.252 1.076 c -0.383 1.635 0.858 3.2 2.538 3.2 h 24.785 C 89.13 72.415 90.382 70.745 89.894 69.077 z" style="stroke: none; stroke-width: 1; stroke-dasharray: none; stroke-linecap: butt; stroke-linejoin: miter; stroke-miterlimit: 10; fill: rgb(182,195,187); fill-rule: nonzero; opacity: 1;" transform=" matrix(1 0 0 1 0 0) " stroke-linecap="round" />
	<circle cx="66.619" cy="57.669" r="1.949" style="stroke: none; stroke-width: 1; stroke-dasharray: none; stroke-linecap: butt; stroke-linejoin: miter; stroke-miterlimit: 10; fill: rgb(240,249,237); fill-rule: nonzero; opacity: 1;" transform="  matrix(1 0 0 1 0 0) "/>
	<circle cx="70.21499999999999" cy="60.385000000000005" r="1.145" style="stroke: none; stroke-width: 1; stroke-dasharray: none; stroke-linecap: butt; stroke-linejoin: miter; stroke-miterlimit: 10; fill: rgb(240,249,237); fill-rule: nonzero; opacity: 1;" transform="  matrix(1 0 0 1 0 0) "/>
</g>
</svg>